<?xml version="1.0" encoding="UTF-8" standalone="no"?>
<!DOCTYPE svg PUBLIC "-//W3C//DTD SVG 1.1//EN"
 "http://www.w3.org/Graphics/SVG/1.1/DTD/svg11.dtd">
<!-- Generated by graphviz version 2.42.4 (0)
 -->
<!-- Title: MusicStoreLogical Pages: 1 -->
<svg width="948pt" height="484pt"
 viewBox="0.00 0.00 947.50 484.00" xmlns="http://www.w3.org/2000/svg" xmlns:xlink="http://www.w3.org/1999/xlink">
<g id="graph0" class="graph" transform="scale(1 1) rotate(0) translate(18 466)">
<title>MusicStoreLogical</title>
<polygon fill="white" stroke="transparent" points="-18,18 -18,-466 929.5,-466 929.5,18 -18,18"/>
<text text-anchor="middle" x="455.75" y="-426.4" font-family="Arial" font-size="22.00">Music Store Database &#45; Logical ERD</text>
<!-- customer -->
<g id="node1" class="node">
<title>customer</title>
<path fill="#dcebfa" stroke="#8a8a8a" stroke-width="1.1" d="M703,-416C703,-416 624,-416 624,-416 618,-416 612,-410 612,-404 612,-404 612,-390 612,-390 612,-384 618,-378 624,-378 624,-378 703,-378 703,-378 709,-378 715,-384 715,-390 715,-390 715,-404 715,-404 715,-410 709,-416 703,-416"/>
<text text-anchor="middle" x="663.5" y="-400.2" font-family="Arial" font-size="11.00">Customer</text>
<text text-anchor="middle" x="663.5" y="-388.2" font-family="Arial" font-size="11.00">PK customer_id</text>
</g>
<!-- playlist -->
<g id="node2" class="node">
<title>playlist</title>
<path fill="#dcebfa" stroke="#8a8a8a" stroke-width="1.1" d="M635.5,-310C635.5,-310 557.5,-310 557.5,-310 551.5,-310 545.5,-304 545.5,-298 545.5,-298 545.5,-272 545.5,-272 545.5,-266 551.5,-260 557.5,-260 557.5,-260 635.5,-260 635.5,-260 641.5,-260 647.5,-266 647.5,-272 647.5,-272 647.5,-298 647.5,-298 647.5,-304 641.5,-310 635.5,-310"/>
<text text-anchor="middle" x="596.5" y="-294.2" font-family="Arial" font-size="11.00">Playlist</text>
<text text-anchor="middle" x="596.5" y="-282.2" font-family="Arial" font-size="11.00">PK playlist_id</text>
<text text-anchor="middle" x="596.5" y="-270.2" font-family="Arial" font-size="11.00">FK customer_id</text>
</g>
<!-- customer&#45;&gt;playlist -->
<g id="edge1" class="edge">
<title>customer&#45;&gt;playlist</title>
<path fill="none" stroke="#667085" stroke-width="1.1" d="M652.44,-377.84C641.21,-359.41 623.77,-330.77 611.35,-310.37"/>
<text text-anchor="middle" x="652" y="-341.8" font-family="Arial" font-size="9.00">1 &#160;&#160;&#160;&#160;&#160;&#160;&#160;0..*</text>
</g>
<!-- orders -->
<g id="node12" class="node">
<title>orders</title>
<path fill="#fce7d6" stroke="#8a8a8a" stroke-width="1.1" d="M545.5,-56C545.5,-56 467.5,-56 467.5,-56 461.5,-56 455.5,-50 455.5,-44 455.5,-44 455.5,-18 455.5,-18 455.5,-12 461.5,-6 467.5,-6 467.5,-6 545.5,-6 545.5,-6 551.5,-6 557.5,-12 557.5,-18 557.5,-18 557.5,-44 557.5,-44 557.5,-50 551.5,-56 545.5,-56"/>
<text text-anchor="middle" x="506.5" y="-40.2" font-family="Arial" font-size="11.00">Orders</text>
<text text-anchor="middle" x="506.5" y="-28.2" font-family="Arial" font-size="11.00">PK order_id</text>
<text text-anchor="middle" x="506.5" y="-16.2" font-family="Arial" font-size="11.00">FK customer_id</text>
</g>
<!-- customer&#45;&gt;orders -->
<g id="edge12" class="edge">
<title>customer&#45;&gt;orders</title>
<path fill="none" stroke="#667085" stroke-width="1.1" d="M670.02,-377.96C674.82,-364.71 680.5,-349 680.5,-349 680.5,-349 680.5,-339 680.5,-339 680.5,-339 667.5,-130 667.5,-130 667.5,-130 609.5,-91 609.5,-91 609.5,-91 577.14,-72.46 548.69,-56.17"/>
<text text-anchor="middle" x="692" y="-223.8" font-family="Arial" font-size="9.00">1 &#160;&#160;&#160;&#160;&#160;&#160;&#160;0..*</text>
</g>
<!-- playlist_track -->
<g id="node3" class="node">
<title>playlist_track</title>
<path fill="#e9e1f8" stroke="#8a8a8a" stroke-width="1.1" d="M635.5,-186C635.5,-186 551.5,-186 551.5,-186 545.5,-186 539.5,-180 539.5,-174 539.5,-174 539.5,-148 539.5,-148 539.5,-142 545.5,-136 551.5,-136 551.5,-136 635.5,-136 635.5,-136 641.5,-136 647.5,-142 647.5,-148 647.5,-148 647.5,-174 647.5,-174 647.5,-180 641.5,-186 635.5,-186"/>
<text text-anchor="middle" x="593.5" y="-170.2" font-family="Arial" font-size="11.00">PlaylistTrack</text>
<text text-anchor="middle" x="593.5" y="-158.2" font-family="Arial" font-size="11.00">PK/FK playlist_id</text>
<text text-anchor="middle" x="593.5" y="-146.2" font-family="Arial" font-size="11.00">PK/FK track_id</text>
</g>
<!-- playlist&#45;&gt;playlist_track -->
<g id="edge2" class="edge">
<title>playlist&#45;&gt;playlist_track</title>
<path fill="none" stroke="#667085" stroke-width="1.1" d="M595.91,-259.9C595.38,-238.51 594.62,-207.43 594.09,-186.05"/>
<text text-anchor="middle" x="613" y="-223.8" font-family="Arial" font-size="9.00">1 &#160;&#160;&#160;&#160;&#160;&#160;&#160;0..*</text>
</g>
<!-- artist -->
<g id="node4" class="node">
<title>artist</title>
<path fill="#dff3e4" stroke="#8a8a8a" stroke-width="1.1" d="M145.5,-416C145.5,-416 87.5,-416 87.5,-416 81.5,-416 75.5,-410 75.5,-404 75.5,-404 75.5,-390 75.5,-390 75.5,-384 81.5,-378 87.5,-378 87.5,-378 145.5,-378 145.5,-378 151.5,-378 157.5,-384 157.5,-390 157.5,-390 157.5,-404 157.5,-404 157.5,-410 151.5,-416 145.5,-416"/>
<text text-anchor="middle" x="116.5" y="-400.2" font-family="Arial" font-size="11.00">Artist</text>
<text text-anchor="middle" x="116.5" y="-388.2" font-family="Arial" font-size="11.00">PK artist_id</text>
</g>
<!-- album_artist -->
<g id="node6" class="node">
<title>album_artist</title>
<path fill="#e9e1f8" stroke="#8a8a8a" stroke-width="1.1" d="M93,-310C93,-310 12,-310 12,-310 6,-310 0,-304 0,-298 0,-298 0,-272 0,-272 0,-266 6,-260 12,-260 12,-260 93,-260 93,-260 99,-260 105,-266 105,-272 105,-272 105,-298 105,-298 105,-304 99,-310 93,-310"/>
<text text-anchor="middle" x="52.5" y="-294.2" font-family="Arial" font-size="11.00">AlbumArtist</text>
<text text-anchor="middle" x="52.5" y="-282.2" font-family="Arial" font-size="11.00">PK/FK album_id</text>
<text text-anchor="middle" x="52.5" y="-270.2" font-family="Arial" font-size="11.00">PK/FK artist_id</text>
</g>
<!-- artist&#45;&gt;album_artist -->
<g id="edge4" class="edge">
<title>artist&#45;&gt;album_artist</title>
<path fill="none" stroke="#667085" stroke-width="1.1" d="M101.53,-377.96C90.53,-364.71 77.5,-349 77.5,-349 77.5,-349 69.14,-327.94 62.09,-310.18"/>
<text text-anchor="middle" x="96" y="-341.8" font-family="Arial" font-size="9.00">1 &#160;&#160;&#160;&#160;&#160;&#160;&#160;0..*</text>
</g>
<!-- track_artist -->
<g id="node8" class="node">
<title>track_artist</title>
<path fill="#e9e1f8" stroke="#8a8a8a" stroke-width="1.1" d="M232,-310C232,-310 157,-310 157,-310 151,-310 145,-304 145,-298 145,-298 145,-272 145,-272 145,-266 151,-260 157,-260 157,-260 232,-260 232,-260 238,-260 244,-266 244,-272 244,-272 244,-298 244,-298 244,-304 238,-310 232,-310"/>
<text text-anchor="middle" x="194.5" y="-294.2" font-family="Arial" font-size="11.00">TrackArtist</text>
<text text-anchor="middle" x="194.5" y="-282.2" font-family="Arial" font-size="11.00">PK/FK track_id</text>
<text text-anchor="middle" x="194.5" y="-270.2" font-family="Arial" font-size="11.00">PK/FK artist_id</text>
</g>
<!-- artist&#45;&gt;track_artist -->
<g id="edge9" class="edge">
<title>artist&#45;&gt;track_artist</title>
<path fill="none" stroke="#667085" stroke-width="1.1" d="M129.38,-377.84C142.45,-359.41 162.76,-330.77 177.22,-310.37"/>
<text text-anchor="middle" x="174" y="-341.8" font-family="Arial" font-size="9.00">1 &#160;&#160;&#160;&#160;&#160;&#160;&#160;0..*</text>
</g>
<!-- album -->
<g id="node5" class="node">
<title>album</title>
<path fill="#dff3e4" stroke="#8a8a8a" stroke-width="1.1" d="M253.5,-180C253.5,-180 189.5,-180 189.5,-180 183.5,-180 177.5,-174 177.5,-168 177.5,-168 177.5,-154 177.5,-154 177.5,-148 183.5,-142 189.5,-142 189.5,-142 253.5,-142 253.5,-142 259.5,-142 265.5,-148 265.5,-154 265.5,-154 265.5,-168 265.5,-168 265.5,-174 259.5,-180 253.5,-180"/>
<text text-anchor="middle" x="221.5" y="-164.2" font-family="Arial" font-size="11.00">Album</text>
<text text-anchor="middle" x="221.5" y="-152.2" font-family="Arial" font-size="11.00">PK album_id</text>
</g>
<!-- album&#45;&gt;album_artist -->
<g id="edge5" class="edge">
<title>album&#45;&gt;album_artist</title>
<path fill="none" stroke="#667085" stroke-width="1.1" d="M195.84,-180.02C171.14,-197.37 137.5,-221 137.5,-221 137.5,-221 109.09,-242.06 85.12,-259.82"/>
<text text-anchor="middle" x="156" y="-223.8" font-family="Arial" font-size="9.00">1 &#160;&#160;&#160;&#160;&#160;&#160;&#160;0..*</text>
</g>
<!-- track -->
<g id="node7" class="node">
<title>track</title>
<path fill="#dff3e4" stroke="#8a8a8a" stroke-width="1.1" d="M447.5,-192C447.5,-192 357.5,-192 357.5,-192 351.5,-192 345.5,-186 345.5,-180 345.5,-180 345.5,-142 345.5,-142 345.5,-136 351.5,-130 357.5,-130 357.5,-130 447.5,-130 447.5,-130 453.5,-130 459.5,-136 459.5,-142 459.5,-142 459.5,-180 459.5,-180 459.5,-186 453.5,-192 447.5,-192"/>
<text text-anchor="middle" x="402.5" y="-176.2" font-family="Arial" font-size="11.00">Track</text>
<text text-anchor="middle" x="402.5" y="-164.2" font-family="Arial" font-size="11.00">PK track_id</text>
<text text-anchor="middle" x="402.5" y="-152.2" font-family="Arial" font-size="11.00">FK album_id</text>
<text text-anchor="middle" x="402.5" y="-140.2" font-family="Arial" font-size="11.00">FK media_type_id</text>
</g>
<!-- album&#45;&gt;track -->
<g id="edge6" class="edge">
<title>album&#45;&gt;track</title>
<path fill="none" stroke="#667085" stroke-width="1.1" d="M265.78,-161C289.74,-161 319.62,-161 345.33,-161"/>
<text text-anchor="middle" x="305.5" y="-166.8" font-family="Arial" font-size="9.00">1 &#160;&#160;&#160;&#160;&#160;&#160;&#160;0..*</text>
</g>
<!-- order_item -->
<g id="node13" class="node">
<title>order_item</title>
<path fill="#fce7d6" stroke="#8a8a8a" stroke-width="1.1" d="M759.5,-62C759.5,-62 649.5,-62 649.5,-62 643.5,-62 637.5,-56 637.5,-50 637.5,-50 637.5,-12 637.5,-12 637.5,-6 643.5,0 649.5,0 649.5,0 759.5,0 759.5,0 765.5,0 771.5,-6 771.5,-12 771.5,-12 771.5,-50 771.5,-50 771.5,-56 765.5,-62 759.5,-62"/>
<text text-anchor="middle" x="704.5" y="-46.2" font-family="Arial" font-size="11.00">OrderItem</text>
<text text-anchor="middle" x="704.5" y="-34.2" font-family="Arial" font-size="11.00">PK order_item_id</text>
<text text-anchor="middle" x="704.5" y="-22.2" font-family="Arial" font-size="11.00">FK order_id</text>
<text text-anchor="middle" x="704.5" y="-10.2" font-family="Arial" font-size="11.00">FK track_id / album_id</text>
</g>
<!-- album&#45;&gt;order_item -->
<g id="edge16" class="edge">
<title>album&#45;&gt;order_item</title>
<path fill="none" stroke="#667085" stroke-width="1.1" d="M265.61,-147.28C293.95,-139.1 325.5,-130 325.5,-130 325.5,-130 528.27,-77.57 637.18,-49.41"/>
<text text-anchor="middle" x="488" y="-93.8" font-family="Arial" font-size="9.00">1 &#160;&#160;&#160;&#160;&#160;&#160;&#160;0..*</text>
</g>
<!-- track&#45;&gt;playlist_track -->
<g id="edge3" class="edge">
<title>track&#45;&gt;playlist_track</title>
<path fill="none" stroke="#667085" stroke-width="1.1" d="M459.55,-161C484.83,-161 514.43,-161 539.36,-161"/>
<text text-anchor="middle" x="499.5" y="-166.8" font-family="Arial" font-size="9.00">1 &#160;&#160;&#160;&#160;&#160;&#160;&#160;0..*</text>
</g>
<!-- track&#45;&gt;track_artist -->
<g id="edge8" class="edge">
<title>track&#45;&gt;track_artist</title>
<path fill="none" stroke="#667085" stroke-width="1.1" d="M351.17,-192.11C315.55,-213 268.74,-240.45 235.59,-259.9"/>
<text text-anchor="middle" x="317" y="-223.8" font-family="Arial" font-size="9.00">1 &#160;&#160;&#160;&#160;&#160;&#160;&#160;0..*</text>
</g>
<!-- track_genre -->
<g id="node10" class="node">
<title>track_genre</title>
<path fill="#e9e1f8" stroke="#8a8a8a" stroke-width="1.1" d="M376.5,-310C376.5,-310 296.5,-310 296.5,-310 290.5,-310 284.5,-304 284.5,-298 284.5,-298 284.5,-272 284.5,-272 284.5,-266 290.5,-260 296.5,-260 296.5,-260 376.5,-260 376.5,-260 382.5,-260 388.5,-266 388.5,-272 388.5,-272 388.5,-298 388.5,-298 388.5,-304 382.5,-310 376.5,-310"/>
<text text-anchor="middle" x="336.5" y="-294.2" font-family="Arial" font-size="11.00">TrackGenre</text>
<text text-anchor="middle" x="336.5" y="-282.2" font-family="Arial" font-size="11.00">PK/FK track_id</text>
<text text-anchor="middle" x="336.5" y="-270.2" font-family="Arial" font-size="11.00">PK/FK genre_id</text>
</g>
<!-- track&#45;&gt;track_genre -->
<g id="edge10" class="edge">
<title>track&#45;&gt;track_genre</title>
<path fill="none" stroke="#667085" stroke-width="1.1" d="M386.21,-192.11C374.91,-213 360.06,-240.45 349.54,-259.9"/>
<text text-anchor="middle" x="388" y="-223.8" font-family="Arial" font-size="9.00">1 &#160;&#160;&#160;&#160;&#160;&#160;&#160;0..*</text>
</g>
<!-- track&#45;&gt;order_item -->
<g id="edge15" class="edge">
<title>track&#45;&gt;order_item</title>
<path fill="none" stroke="#667085" stroke-width="1.1" d="M459.66,-135.77C510.19,-114.36 583.95,-83.09 637.29,-60.48"/>
<text text-anchor="middle" x="581" y="-93.8" font-family="Arial" font-size="9.00">1 &#160;&#160;&#160;&#160;&#160;&#160;&#160;0..*</text>
</g>
<!-- genre -->
<g id="node9" class="node">
<title>genre</title>
<path fill="#dff3e4" stroke="#8a8a8a" stroke-width="1.1" d="M359,-416C359,-416 296,-416 296,-416 290,-416 284,-410 284,-404 284,-404 284,-390 284,-390 284,-384 290,-378 296,-378 296,-378 359,-378 359,-378 365,-378 371,-384 371,-390 371,-390 371,-404 371,-404 371,-410 365,-416 359,-416"/>
<text text-anchor="middle" x="327.5" y="-400.2" font-family="Arial" font-size="11.00">Genre</text>
<text text-anchor="middle" x="327.5" y="-388.2" font-family="Arial" font-size="11.00">PK genre_id</text>
</g>
<!-- genre&#45;&gt;track_genre -->
<g id="edge11" class="edge">
<title>genre&#45;&gt;track_genre</title>
<path fill="none" stroke="#667085" stroke-width="1.1" d="M328.99,-377.84C330.49,-359.41 332.84,-330.77 334.51,-310.37"/>
<text text-anchor="middle" x="351" y="-341.8" font-family="Arial" font-size="9.00">1 &#160;&#160;&#160;&#160;&#160;&#160;&#160;0..*</text>
</g>
<!-- media_type -->
<g id="node11" class="node">
<title>media_type</title>
<path fill="#dff3e4" stroke="#8a8a8a" stroke-width="1.1" d="M513.5,-416C513.5,-416 423.5,-416 423.5,-416 417.5,-416 411.5,-410 411.5,-404 411.5,-404 411.5,-390 411.5,-390 411.5,-384 417.5,-378 423.5,-378 423.5,-378 513.5,-378 513.5,-378 519.5,-378 525.5,-384 525.5,-390 525.5,-390 525.5,-404 525.5,-404 525.5,-410 519.5,-416 513.5,-416"/>
<text text-anchor="middle" x="468.5" y="-400.2" font-family="Arial" font-size="11.00">MediaType</text>
<text text-anchor="middle" x="468.5" y="-388.2" font-family="Arial" font-size="11.00">PK media_type_id</text>
</g>
<!-- media_type&#45;&gt;track -->
<g id="edge7" class="edge">
<title>media_type&#45;&gt;track</title>
<path fill="none" stroke="#667085" stroke-width="1.1" d="M463.32,-377.64C451.99,-337.45 424.89,-241.37 411.01,-192.16"/>
<text text-anchor="middle" x="463" y="-282.8" font-family="Arial" font-size="9.00">1 &#160;&#160;&#160;&#160;&#160;&#160;&#160;0..*</text>
</g>
<!-- orders&#45;&gt;order_item -->
<g id="edge13" class="edge">
<title>orders&#45;&gt;order_item</title>
<path fill="none" stroke="#667085" stroke-width="1.1" d="M557.75,-31C582.04,-31 611.37,-31 637.41,-31"/>
<text text-anchor="middle" x="597.5" y="-36.8" font-family="Arial" font-size="9.00">1 &#160;&#160;&#160;&#160;&#160;&#160;&#160;1..*</text>
</g>
<!-- payment -->
<g id="node14" class="node">
<title>payment</title>
<path fill="#fce7d6" stroke="#8a8a8a" stroke-width="1.1" d="M899.5,-56C899.5,-56 823.5,-56 823.5,-56 817.5,-56 811.5,-50 811.5,-44 811.5,-44 811.5,-18 811.5,-18 811.5,-12 817.5,-6 823.5,-6 823.5,-6 899.5,-6 899.5,-6 905.5,-6 911.5,-12 911.5,-18 911.5,-18 911.5,-44 911.5,-44 911.5,-50 905.5,-56 899.5,-56"/>
<text text-anchor="middle" x="861.5" y="-40.2" font-family="Arial" font-size="11.00">Payment</text>
<text text-anchor="middle" x="861.5" y="-28.2" font-family="Arial" font-size="11.00">PK payment_id</text>
<text text-anchor="middle" x="861.5" y="-16.2" font-family="Arial" font-size="11.00">FK order_id</text>
</g>
<!-- orders&#45;&gt;payment -->
<g id="edge14" class="edge">
<title>orders&#45;&gt;payment</title>
<path fill="none" stroke="#667085" stroke-width="1.1" d="M557.78,-45.32C586.86,-53.44 617.5,-62 617.5,-62 617.5,-62 735,-91 735,-91 735,-91 772,-91 772,-91 772,-91 799.54,-72.54 824.06,-56.1"/>
<text text-anchor="middle" x="753.5" y="-93.8" font-family="Arial" font-size="9.00">1 &#160;&#160;&#160;&#160;&#160;&#160;&#160;0..*</text>
</g>
</g>
</svg>
